<svg data-v-0dd9719b="" version="1.0" xmlns="http://www.w3.org/2000/svg" xmlns:xlink="http://www.w3.org/1999/xlink" width="100%" height="100%" viewBox="0 0 340.000000 250.000000" preserveAspectRatio="xMidYMid meet" color-interpolation-filters="sRGB" style="margin: auto;"> <rect data-v-0dd9719b="" x="0" y="0" width="100%" height="100%" fill="#ffffff" fill-opacity="1" class="background"></rect> <rect data-v-0dd9719b="" x="0" y="0" width="100%" height="100%" fill="url(#watermark)" fill-opacity="1" class="watermarklayer"></rect> <g data-v-0dd9719b="" fill="#c67bcf" class="icon-text-wrapper icon-svg-group iconsvg" transform="translate(48.30000305175781,94.74372863769531)"><g class="iconsvg-imagesvg" transform="translate(0,0)"><g><rect fill="#c67bcf" fill-opacity="0" stroke-width="2" x="0" y="0" width="60" height="60.51254122416871" class="image-rect"></rect> <svg filter="url(#colors6581960695)" x="0" y="0" width="60" height="60.51254122416871" filtersec="colorsf5131620236" class="image-svg-svg primary" style="overflow: visible;"><svg xmlns="http://www.w3.org/2000/svg" xmlns:xlink="http://www.w3.org/1999/xlink" version="1.1" x="0px" y="0px" viewBox="4 3.726534128189087 64 64.54693603515625" xml:space="preserve"><g><g><path d="M67,66.273407h-5.9008789l-9.06604-7.227047c0.4500732-0.2998047,0.8900146-0.6098633,1.3099365-0.9301758    c1.6276779,1.1986122,3.9067268,1.0434647,5.3701172-0.4199219c1.4699707-1.4697266,1.6098633-3.7797852,0.3898926-5.3999023    c2.7399902-3.6899414,4.5900879-8.0698242,5.25-12.8398438c2.0400391-0.25,3.6201172-2,3.6201172-4.1098633    c0-1.1401367-0.460083-2.1801758-1.2200928-2.9301758c-0.6400146-0.6401386-1.5-1.08008-2.4499512-1.1899433    c-0.7200928-4.6899414-2.5899658-9.0102539-5.3199463-12.6503906c3.2216034-3.8446093-2.0246162-9.0654545-5.8701172-5.8198242    c-3.6398926-2.6899414-7.9499512-4.5200195-12.619873-5.199707c-0.1601563-2.1401367-1.9500732-3.8300779-4.130127-3.8300779    c-2.1799316,0-3.9799805,1.6899412-4.1398926,3.8300779c-4.6600342,0.6796875-8.9700928,2.5097656-12.6000977,5.1899414    c-3.8360538-3.2488089-9.0947304,1.9387541-5.8798828,5.8198242C11.0130615,22.2065144,9.1330566,26.516573,8.4130859,31.21628    c-2.0600586,0.2402344-3.6600342,2.0000019-3.6600342,4.130373c0,2.1098633,1.5799561,3.8496094,3.6099854,4.1098633    c0.6600342,4.7597656,2.5100098,9.1401367,5.2399902,12.8300781c-1.2099609,1.6298828-1.0699463,3.9399414,0.4000244,5.409668    c0.7900391,0.7900391,1.8299561,1.2202148,2.9400635,1.2202148c0.8898926,0,1.7399902-0.2700195,2.4399414-0.7900391    c0.4300537,0.3198242,0.8699951,0.6298828,1.3200684,0.9301758l-9.0761719,7.2167931H5c-0.5522461,0-1,0.4472656-1,1    c0,0.5517578,0.4477539,1,1,1c0.1022215,0.0000229,61.4850693,0.0001221,62,0c0.5522461,0,1-0.4482422,1-1    C68,66.7206726,67.5522461,66.273407,67,66.273407z M19.8830566,51.8261452    c-0.3499756-0.3496094-0.75-0.6298828-1.1699219-0.8295898l0.2700195-1.4702148    c0.8598633,1.0800781,1.8199463,2.0703125,2.869873,2.9501953l-1.2999268,0.2397461    C20.3830566,52.3964577,20.1530762,52.096653,19.8830566,51.8261452z M14.1030273,37.4565163l-1.2399902-0.8500977    c0.2968264-0.9122009,0.2497272-1.8820763-0.0499268-2.6401367l1.289917-0.8901367    C13.9498816,37.591095,14.0786095,36.2116508,14.1030273,37.4565163z M6.7530518,35.346653    c0-1.2169571,0.9817948-2.1601563,2.1500244-2.1601563c1.1002207,0,2.0624752,0.8528862,2.1500244,1.9897461    c0.0729628,1.3845024-0.9807863,2.3203125-2.1500244,2.3203125C7.7407274,37.4965553,6.7530518,36.5527649,6.7530518,35.346653z     M20.6330566,17.8363972l1.4799805,0.2700195l-3.0899658,3.1000977l-0.2799072-1.5302734    C19.5583401,19.2790928,20.2186394,18.6439247,20.6330566,17.8363972z M33.9931641,13.1864948l0.9599609-1.3999023    c0.888382,0.3224201,1.811512,0.3121796,2.5200195,0.0898438l0.8999023,1.3100586H33.9931641z M36.3630371,5.7265339    c1.1714096,0,2.1500244,0.9534044,2.1500244,2.1601563c0,1.1668205-0.9505234,2.1499023-2.1500244,2.1499023    c-1.1468964,0-2.1599121-0.9202127-2.1599121-2.1499023C34.203125,6.6610518,35.2068062,5.7265339,36.3630371,5.7265339z     M49.8325195,20.5258503l-11.1115723,11.109375c-0.3996582-0.3095703-0.8587646-0.5385742-1.3579102-0.6586914V15.21628    C43.0904312,15.4886341,46.5588646,17.6508427,49.8325195,20.5258503z M53.6530762,19.4965534l-0.2900391,1.5795898    c-0.9099121-1.0898438-1.9399414-2.0898438-3.0599365-2.9794922l1.7600098-0.3203125    C52.420639,18.5106964,53.0034447,19.1148663,53.6530762,19.4965534z M65.9731445,35.346653    c0,1.222908-0.9963074,2.1499023-2.1501465,2.1499023c-1.1863098,0-2.1599121-0.961422-2.1599121-2.1499023    c0-1.2033005,0.9793015-2.1503906,2.1599121-2.1503906C64.9681931,33.1962624,65.9731445,34.1204567,65.9731445,35.346653z     M59.8031006,36.3964577l-1.1800537,0.8100586c0.100338-1.1032448,0.1013412-2.530117-0.0500488-3.9101563l1.2700195,0.8701172    C59.6259193,34.8367805,59.5964279,35.6381912,59.8031006,36.3964577z M53.6831055,51.1864967    c-0.6781502,0.3840446-1.22258,0.9717636-1.5500488,1.5898438l-1.3299561-0.25    c0.9599609-0.7998047,1.8499756-1.6899414,2.6400146-2.6499023L53.6831055,51.1864967z M45.3830566,53.7363014    l-2.1599121-1.7197266c-2.2000732-1.7602539-3.460083-4.3798828-3.460083-7.2700195l-0.3795166-4.9042969l10.3070068,10.3066406    C47.2324409,52.351532,47.8496056,52.5597687,45.3830566,53.7363014z M51.1044922,48.7348366L39.4741211,37.1044655    c0.1691895-0.2089844,0.3085938-0.4482422,0.4182129-0.6967773l16.3707275,0.0004883    C56.2875786,43.9720345,53.9977036,45.8913727,51.1044922,48.7348366z M56.2630615,34.4081764l-16.0098877-0.0004883    c-0.0001221-0.0004883,0-0.0009766-0.0001221-0.0014648c-0.0299072-0.4199219-0.1300049-0.8095703-0.289917-1.1796875    c0-0.0048828,0-0.003418,0-0.0048828l11.2836914-11.2817402c0.0686493,0.1005802,3.6379967,2.8864765,5.0162354,9.4067383    V34.4081764z M35.3630371,15.21628v15.7602539c-0.4992676,0.1201172-0.9584961,0.3491211-1.3580322,0.6591797    L22.7744141,20.4052448C26.1544189,17.365694,30.5336914,15.4462605,35.3630371,15.21628z M21.3605957,21.8193073    L32.7630615,33.221653c0,0.0014648,0,0,0,0.0048828c-0.1600342,0.3701172-0.2600098,0.7597656-0.289917,1.1796875    c0,0.0004883,0,0.0009766,0,0.0009766H16.1157227c-0.0045166,0-0.0081787,0.0024414-0.0126953,0.0024414    C16.1275883,34.309639,15.9532757,27.7219353,21.3605957,21.8193073z M16.1030273,36.4042702    c25.8226929,0.0045204,13.0328102,0.0022812,16.7307129,0.0029297c0.1096191,0.2485352,0.2489014,0.487793,0.4177246,0.6967773    L21.4350586,48.9184303l-1.7017822-1.7021484c-0.0001221,0-0.0001221,0-0.0001221,0    C15.8751154,41.7431068,16.1232109,36.5043221,16.1030273,36.4042702z M22.8530273,50.3363991l-0.0037842-0.0039063    l10.5634766-10.5615234c-0.65382,4.1306648,0.5871048,8.6876335-3.8596191,12.2456055l-2.1800537,1.7397461    C23.9474258,52.0624352,24.0650482,51.3379745,22.8530273,50.3363991z M30.7930908,53.5761452    c2.6900635-2.1298828,4.2299805-5.3295898,4.2299805-8.6796875c0.0077515-0.1023941,0.5115318-6.7566032,0.4799805-6.3398438    c0.5141907,0.1282082,1.1501808,0.1414375,1.7800293-0.0102539c0.0078239,0.1023865,0.5118332,6.6965179,0.4799805,6.2797852    c0,6.5223083,5.0854988,9.2870598,5.5400391,9.8105469c0.1022339,0.0814819,10.8319016,8.6334229,10.1500244,8.0898438h-3.5400391    c-13.060463-10.4272346-13.501255-7.618515-25.25-1.4702148l-1.8499756,1.4702148h-3.5300293    C30.2813969,53.9912224,30.8555908,53.5263367,30.7930908,53.5761452z M40.3031006,61.506321    c-0.2200928-0.6899414-0.6199951-1.2998047-1.1500244-1.7700195l0.8300781-1.2099609    c1.4499512,0.4399414,2.8398438,1.1401367,4.0998535,2.1103516C42.8530273,61.0165749,41.5930176,61.3066139,40.3031006,61.506321    z M28.6430664,60.636692c1.1700439-0.9003906,2.4599609-1.5703125,3.8000488-2.0102539l0.9099121,1.3198242    c-0.4199219,0.4404297-0.75,0.9702148-0.9399414,1.5600586C31.1230469,61.3066139,29.8630371,61.0165749,28.6430664,60.636692z     M37.8630371,58.0863991l-0.4799805,0.6899414c-0.3199463-0.0898438-0.6699219-0.1298828-1.0200195-0.1298828    c-0.4599609,0-0.9099121,0.0698242-1.3199463,0.2197266l-0.5100098-0.7294922    C35.6330566,57.9662819,36.7530518,57.9462624,37.8630371,58.0863991z M34.203125,62.79636    c0-0.3901367,0.0999756-0.7597656,0.2900391-1.0698242c0.0198975,0.0097656,0.0499268,0.0097656,0.079834,0l-0.039917-0.0600586    c0.3800049-0.6098633,1.0599365-1.0200195,1.8299561-1.0200195c0.6600342,0,1.25,0.2998047,1.6400146,0.7597656l-0.25,0.3603516    c0.1600342-0.0102539,0.3199463-0.0200195,0.4700928-0.0400391c0.1899414,0.3100586,0.289917,0.6796875,0.289917,1.0698242    c0,0.3300781-0.0699463,0.6401367-0.2099609,0.9199219c-0.3399658,0.7299767-1.0799561,1.2402306-1.9400635,1.2402306    c-0.8599854,0-1.6099854-0.5102539-1.9499512-1.2402306C34.2730713,63.4364967,34.203125,63.1264381,34.203125,62.79636z     M26.7830811,62.1161842c1.75,0.6401367,3.5899658,1.1103516,5.4899902,1.3803711    c0.1898193,1.157711,0.8682861,2.1562462,1.8060303,2.7768517H21.5671387L26.7830811,62.1161842z M40.453125,63.4965553    c1.8999023-0.2700195,3.7299805-0.7402344,5.4899902-1.3803711l5.2160645,4.1572227H38.6369629    C39.5847168,65.6528015,40.2634277,64.6542664,40.453125,63.4965553z M50.3830566,57.7265358l-3.2900391-2.6298828    c0.5300293-0.2900391,1.0500488-0.6000977,1.5500488-0.9301758l2.9899902,0.5498047    c-0.0100098,0.6401367,0.1300049,1.2802734,0.4200439,1.8701172    C51.5130615,56.9863014,50.953125,57.3764381,50.3830566,57.7265358z M57.5631104,51.0165749    c-0.6099854-0.2900391-1.2800293-0.4301758-1.9500732-0.4003906l-0.5400391-2.9199219    c1.5300293-2.3398438,2.630127-4.9799805,3.2000732-7.8198242l2.5-1.7202148    c0.4400635,0.4804688,0.9899902,0.8500977,1.5999756,1.0703125    C61.7530518,43.5863991,60.0631104,47.6161842,57.5631104,51.0165749z M62.322998,31.4862995    c-0.5599365,0.2001953-1.0599365,0.540041-1.4599609,0.9599628l-2.7199707-1.8701191    c-0.5999756-2.6499023-1.6799316-5.1298828-3.1400146-7.3295898l0.5799561-3.1704102    c0.2676888,0.0457039,1.0548859-0.0054569,1.7900391-0.2998047c0.0100098,0,0.0100098,0,0.0100098,0    C59.9130859,23.1464558,61.6530762,27.1464558,62.322998,31.4862995z M51.6430664,15.8163776l-3.6199951,0.6699219h-0.0100098    c-2.0899658-1.2900391-4.4000244-2.2397461-6.8699951-2.7797852c-0.0334854-0.1012745-1.8605919-2.7190771-1.9299316-2.8198242    c0.4099121-0.3701172,0.7399902-0.840332,0.9699707-1.3603516c4.3499756,0.6298828,8.3599854,2.3398438,11.75,4.8500977    C51.7431641,14.8363972,51.6430664,15.3261433,51.6430664,15.8163776z M32.5430908,9.5263386    c0.1900635,0.4301758,0.4400635,0.8100586,0.75,1.1499023c-2.2335835,3.2547512-2.077219,2.991787-2.1199951,3.1201172    c-2.3699951,0.5600586-4.5900879,1.5-6.6000977,2.7700195c-0.1866608-0.1068497-0.0417824-0.0347557-3.4799805-0.6796875    c-0.0100098-0.5102539-0.0998535-1.0302734-0.2999268-1.5102539    C24.1831055,11.8661823,28.1931152,10.1562214,32.5430908,9.5263386z M15.3530273,19.766573    c0.460083,0.1899414,0.9400635,0.2900391,1.4300537,0.2998047l0.6199951,3.3701172    c0.0100098,0.0698242,0.0300293,0.1396484,0.0600586,0.2001953c-1.2800293,2.0195313-2.2399902,4.2597656-2.8100586,6.6396484    c-0.1127729,0.085268-2.8119755,1.9388065-2.9299316,2.0200214c-0.380127-0.3598652-0.8300781-0.6401386-1.3300781-0.83008    C11.072998,27.1264362,12.8131104,23.1264362,15.3530273,19.766573z M10.3530273,39.2265358    c0.5500488-0.2001953,1.0400391-0.5102539,1.4500732-0.9199219l2.7099609,1.8696289    c0.5400391,2.550293,1.5200195,4.9399414,2.8599854,7.090332l-0.6199951,3.3496094    c-0.5499268,0.0205078-1.0899658,0.1503906-1.5999756,0.3901367    C12.6530762,47.6064186,10.9631348,43.5863991,10.3530273,39.2265358z M20.6730957,56.5863991    c0.2800293-0.5600586,0.4299316-1.1801758,0.4299316-1.8300781c0-0.0400391,0-0.0698242-0.0100098-0.1098633l2.9100342-0.5302734    c0.5300293,0.3603516,1.0799561,0.6904297,1.6500244,1l-3.2900391,2.6201172    C21.7830811,57.386692,21.2231445,56.9965553,20.6730957,56.5863991z"></path></g></g></svg></svg> <defs><filter id="colors6581960695"><feColorMatrix type="matrix" values="0 0 0 0 0.7734375  0 0 0 0 0.48046875  0 0 0 0 0.80859375  0 0 0 1 0" class="icon-fecolormatrix"></feColorMatrix></filter> <filter id="colorsf5131620236"><feColorMatrix type="matrix" values="0 0 0 0 0.99609375  0 0 0 0 0.99609375  0 0 0 0 0.99609375  0 0 0 1 0" class="icon-fecolormatrix"></feColorMatrix></filter> <filter id="colorsb514247594"><feColorMatrix type="matrix" values="0 0 0 0 0  0 0 0 0 0  0 0 0 0 0  0 0 0 1 0" class="icon-fecolormatrix"></feColorMatrix></filter></defs></g></g> <g transform="translate(67,2.08502197265625)"><g data-gra="path-name" fill-rule="" class="tp-name iconsvg-namesvg" transform="translate(0,0)"><g transform="scale(1)"><g><path d="M22.06-15.12L22.06-15.12Q19.56-7.56 13.1-2.2 6.64 3.16 3.87 3.16L3.87 3.16Q1.8 3.16 1.8 0.83L1.8 0.83Q1.8-0.44 3.47-1.19L3.47-1.19Q16.61-7.21 18.98-18.33L18.98-18.33 6.24-18.33Q3.82-18.33 3.82-20.26L3.82-20.26Q3.82-22.24 6.24-22.24L6.24-22.24 19.56-22.24Q19.91-25.66 19.91-31.33L19.91-31.33 4.66-31.33Q2.24-31.33 2.24-33.31 2.24-35.29 4.66-35.29L4.66-35.29 40.34-35.29Q42.76-35.29 42.76-33.31 42.76-31.33 40.34-31.33L40.34-31.33 23.95-31.33 23.91-30.15Q23.91-25.4 23.6-22.24L23.6-22.24 38.76-22.24Q41.18-22.24 41.18-20.26L41.18-20.26Q41.18-18.33 38.76-18.33L38.76-18.33 24.13-18.33Q26.28-13.05 31.22-8.39 36.17-3.74 41.88-1.36L41.88-1.36Q43.2-0.75 43.2 0.62L43.2 0.62Q43.2 2.9 40.91 2.9L40.91 2.9Q38.1 2.9 31.71-2.37 25.31-7.65 22.06-15.12ZM84.64-30.5L84.64-27.33 86.48-27.33Q88.24-27.33 88.24-25.75L88.24-25.75Q88.24-24.21 86.48-24.21L86.48-24.21 84.64-24.21 84.64-21.05Q84.86-16.92 80.73-17.14L80.73-17.14 73.17-17.14 73.17-13.4 83.89-13.4Q85.65-13.4 85.65-11.82L85.65-11.82Q85.65-10.28 83.89-10.28L83.89-10.28 73.17-10.28 73.17-6.59 86.26-6.59Q88.11-6.59 88.11-4.97 88.11-3.34 86.26-3.34L86.26-3.34 73.17-3.34 73.17 1.63Q73.17 3.6 71.37 3.6 69.57 3.6 69.57 1.63L69.57 1.63 69.57-3.34 58.36-3.34Q56.51-3.34 56.51-4.97 56.51-6.59 58.36-6.59L58.36-6.59 69.57-6.59 69.57-10.28 60.51-10.28Q58.75-10.28 58.75-11.87L58.75-11.87Q58.75-13.4 60.51-13.4L60.51-13.4 69.57-13.4 69.57-17.14 61.3-17.14Q59.55-17.14 59.55-18.72L59.55-18.72Q59.55-20.26 61.3-20.26L61.3-20.26 69.57-20.26 69.57-24.21 58.49-24.21Q56.69-24.21 56.69-25.75L56.69-25.75Q56.69-27.33 58.49-27.33L58.49-27.33 69.57-27.33 69.57-31.2 61.39-31.2Q59.63-31.2 59.63-32.78 59.63-34.37 61.39-34.37L61.39-34.37 69.57-34.37 69.57-35.82Q69.57-37.79 71.37-37.79 73.17-37.79 73.17-35.82L73.17-35.82 73.17-34.37 80.73-34.37Q84.86-34.54 84.64-30.5L84.64-30.5ZM80.9-24.21L73.17-24.21 73.17-20.26 79.45-20.26Q80.86-20.3 80.9-21.71L80.9-21.71 80.9-24.21ZM73.17-31.2L73.17-27.33 80.9-27.33 80.9-29.75Q80.86-31.16 79.45-31.2L79.45-31.2 73.17-31.2ZM49.75-25.27L49.75-25.27Q50.67-25.27 54.1-23.64L54.1-23.64Q56.12-22.68 56.12-21.31L56.12-21.31Q56.12-19.2 54.14-19.2L54.14-19.2Q53.57-19.2 52.12-19.95L52.12-19.95 50.84-20.57Q47.68-21.88 47.68-23.25L47.68-23.25Q47.68-25.27 49.75-25.27ZM51.94-36.78L51.94-36.78Q52.87-36.78 55.46-35.38 58.05-33.97 58.05-32.65L58.05-32.65Q58.05-30.54 56.03-30.54L56.03-30.54Q55.42-30.54 53.96-31.42L53.96-31.42 52.73-32.08Q49.88-33.57 49.88-34.76L49.88-34.76Q49.88-36.78 51.94-36.78ZM54.58-13.89L54.58-13.89Q56.56-13.89 56.56-12.13L56.56-12.13Q56.56-11.07 54.47-5.36 52.38 0.35 51.7 1.54 51.02 2.72 49.88 2.72L49.88 2.72Q47.72 2.72 47.72 0.79L47.72 0.79Q47.72 0.13 48.16-0.79L48.16-0.79Q50.54-6.11 52.43-11.82L52.43-11.82Q53-13.89 54.58-13.89ZM126.65-20.79L126.65-20.79Q126.47-19.29 124.76-19.34L124.76-19.34 112.54-19.34Q111.01-19.34 110.7-20.57L110.7-20.57Q107.49-17.36 106.39-17.36L106.39-17.36Q104.81-17.36 104.81-19.03L104.81-19.03Q104.81-19.91 106.13-20.87L106.13-20.87Q108.76-22.72 110.87-25L110.87-25 108.33-27.47Q107.58-28.13 107.58-28.74L107.58-28.74Q107.58-30.19 109.16-30.19L109.16-30.19Q110.08-30.19 112.94-27.42L112.94-27.42 115.75-31.51Q116.15-32.12 116.15-32.34L116.15-32.34Q116.15-32.7 115.71-32.7L115.71-32.7 109.51-32.7Q107.58-32.7 107.58-34.23L107.58-34.23Q107.58-35.82 109.51-35.82L109.51-35.82 118.13-35.82Q120.5-35.82 120.5-34.45L120.5-34.45Q120.5-33.93 120.06-33.05L120.06-33.05 122.04-30.06 125.38-33.62Q126.12-34.54 126.83-34.54L126.83-34.54Q128.32-34.54 128.32-33.09L128.32-33.09Q128.32-32.12 125.2-29.66L125.2-29.66 123.84-28.52 123.49-28.26 125.46-26.15Q126.65-27.16 128.8-29.53L128.8-29.53Q129.59-30.41 130.25-30.41L130.25-30.41Q131.75-30.41 131.75-28.96L131.75-28.96Q131.75-27.82 127.18-24.48L127.18-24.48Q129.02-22.9 131.11-21.71 133.2-20.52 133.2-19.42L133.2-19.42Q133.2-17.58 131.48-17.58L131.48-17.58Q130.25-17.58 126.65-20.79ZM112.5-22.41L124.94-22.41Q121.33-25.93 118.61-30.67L118.61-30.67Q115.49-25.53 112.5-22.41L112.5-22.41ZM97.87 1.8L97.87-17.05Q95.45-7.34 93.16-7.34L93.16-7.34Q91.8-7.34 91.8-9.23L91.8-9.23Q91.8-9.76 92.42-10.81L92.42-10.81Q96.15-17.23 97.51-25.09L97.51-25.09 94.09-25.09Q92.02-25.09 92.02-26.81L92.02-26.81Q92.02-28.48 94.09-28.48L94.09-28.48 97.87-28.48 97.87-35.99Q97.87-37.79 99.54-37.79L99.54-37.79Q101.16-37.79 101.16-35.99L101.16-35.99 101.16-28.48 104.33-28.48Q106.44-28.48 106.44-26.81L106.44-26.81Q106.44-25.09 104.33-25.09L104.33-25.09 101.16-25.09 101.16-18.85Q101.65-19.34 102.26-19.34L102.26-19.34Q103.01-19.34 104.66-16.48 106.3-13.62 106.3-12.79L106.3-12.79Q106.3-11.38 104.81-11.38L104.81-11.38Q103.93-11.38 102.26-15.29L102.26-15.29 101.16-17.62 101.16 1.8Q101.16 3.6 99.54 3.6L99.54 3.6Q97.87 3.6 97.87 1.8L97.87 1.8ZM125.9-5.89L125.55-5.89 125.51-5.63 124.72-0.83 130.91-0.83Q132.8-0.83 132.8 0.75L132.8 0.75Q132.8 2.29 130.91 2.29L130.91 2.29 105.56 2.29Q103.62 2.29 103.62 0.7L103.62 0.7Q103.62-0.83 105.56-0.83L105.56-0.83 112.63-0.83 112.02-5.89 111.88-5.89Q108.06-5.67 108.28-9.45L108.28-9.45 108.28-12.88Q108.11-16.66 111.88-16.44L111.88-16.44 125.9-16.44Q129.64-16.66 129.46-12.88L129.46-12.88 129.46-9.45Q129.64-5.67 125.9-5.89L125.9-5.89ZM121.51-0.83L122.3-5.89 115.22-5.89 115.93-0.83 121.51-0.83ZM113.16-8.83L113.16-8.83 124.54-8.83Q125.9-8.88 125.95-10.24L125.95-10.24 125.95-12.08Q125.9-13.45 124.54-13.49L124.54-13.49 113.16-13.49Q111.75-13.45 111.75-12.08L111.75-12.08 111.75-10.24Q111.75-8.88 113.16-8.83ZM148.18-11.16L148.18-3.21Q152.45-1.19 164.79-1.19L164.79-1.19 170.6-1.23 176.22-1.49Q178.2-1.49 178.2 0.4L178.2 0.4Q178.2 2.42 175.25 2.42L175.25 2.42 173.23 2.42 164.31 2.29Q152.23 1.93 148.07 0.24 143.92-1.45 141.72-5.93L141.72-5.93Q140.54 2.29 138.38 2.29L138.38 2.29Q136.8 2.29 136.8 0.62L136.8 0.62Q136.8 0.04 137.37-1.58L137.37-1.58Q139.31-7.12 139.48-14.46L139.48-14.46Q139.53-16.61 141.11-16.61 142.69-16.61 142.69-15.07L142.69-15.07 142.56-13.58 142.38-11.69 142.21-10.02Q143.35-7.25 145.06-5.45L145.06-5.45 145.06-19.86 139-19.86Q136.98-19.86 136.98-21.53L136.98-21.53Q136.98-23.16 139-23.16L139-23.16 144.8-23.16 144.8-28.26 140.23-28.26Q138.16-28.26 138.16-29.88L138.16-29.88Q138.16-31.55 140.23-31.55L140.23-31.55 144.8-31.55 144.8-35.95Q144.8-37.79 146.43-37.79L146.43-37.79Q148.1-37.79 148.1-35.95L148.1-35.95 148.1-31.55 150.6-31.55Q152.62-31.55 152.62-29.88L152.62-29.88Q152.62-28.26 150.6-28.26L150.6-28.26 148.1-28.26 148.1-23.16 151.66-23.16Q153.63-23.16 153.63-21.49L153.63-21.49Q153.63-19.86 151.66-19.86L151.66-19.86 148.18-19.86 148.18-14.46 151-14.46Q152.89-14.46 152.89-12.83L152.89-12.83Q152.89-11.16 151-11.16L151-11.16 148.18-11.16ZM161.54-3.96L161.54-9.36Q154.42-6.28 152.71-6.28L152.71-6.28Q151.22-6.28 151.22-7.95L151.22-7.95Q151.22-9.4 153.5-9.84L153.5-9.84 154.42-10.06 154.42-32.48 153.15-32.48Q151.39-32.48 151.39-34.06L151.39-34.06Q151.39-35.6 153.15-35.6L153.15-35.6 167.78-35.6Q169.54-35.6 169.54-34.06L169.54-34.06Q169.54-32.48 167.78-32.48L167.78-32.48 164.49-32.48 164.49-3.96Q164.49-2.24 162.99-2.24L162.99-2.24Q161.54-2.24 161.54-3.96L161.54-3.96ZM161.41-12.17L161.54-12.26 161.54-16.92 157.37-16.92 157.37-10.85 161.41-12.17ZM161.54-19.86L161.54-24.74 157.37-24.74 157.37-19.86 161.54-19.86ZM157.37-32.48L157.37-27.69 161.54-27.69 161.54-32.48 157.37-32.48ZM173.98-14.94L173.98-14.94Q178.02-8.26 178.02-6.81L178.02-6.81Q178.02-5.1 176.31-5.1L176.31-5.1Q175.3-5.1 174.16-7.65L174.16-7.65 173.41-9.1 172.31-11.16Q168.79-4.35 166.73-4.35L166.73-4.35Q165.19-4.35 165.19-6.11L165.19-6.11Q165.19-6.86 166.35-8.11 167.52-9.36 168.55-10.96 169.58-12.57 170.46-14.59L170.46-14.59Q168.49-18.11 166.55-20.48L166.55-20.48Q165.81-21.4 165.81-21.88L165.81-21.88Q165.81-23.38 167.3-23.38L167.3-23.38Q168.27-23.38 170.73-19.86L170.73-19.86 171.87-18.15Q174.07-24.57 174.07-26.41L174.07-26.41Q174.07-27.07 173.28-27.07L173.28-27.07 167.3-27.07Q165.5-27.07 165.5-28.74L165.5-28.74Q165.5-30.37 167.3-30.37L167.3-30.37 174.29-30.37Q177.41-30.37 177.41-27.91L177.41-27.91Q177.41-23.73 173.98-14.94Z" transform="translate(-1.7999999523162842, 37.790000915527344)"></path></g> <!----> <!----> <!----> <!----> <!----> <!----> <!----></g></g> <g data-gra="path-slogan" fill-rule="" class="tp-slogan iconsvg-slogansvg" fill="#c67bcf" transform="translate(5,47.38999938964844)"><rect x="0" height="1" y="3.9750003814697266" width="16.65999984741211"></rect> <rect height="1" y="3.9750003814697266" width="16.65999984741211" x="149.73999404907227"></rect> <g transform="translate(19.65999984741211,0)"><g transform="scale(1)"><path d="M3.09-7.59L0.19-7.59L0.19-8.58L7.13-8.58L7.13-7.59L4.22-7.59L4.22 0L3.09 0L3.09-7.59ZM8.34-8.58L9.52-8.58L9.52 0L8.34 0L8.34-8.58ZM17.16 0L16.31-2.48L12.84-2.48L11.95 0L10.78 0L14.02-8.58L15.33-8.58L18.42 0L17.16 0ZM14.58-7.31L13.22-3.52L15.89-3.52L14.63-7.31L14.58-7.31ZM20.86-8.58L25.17-1.64L25.17-8.58L26.30-8.58L26.30 0L24.98 0L20.63-6.94L20.58-6.94L20.58 0L19.45 0L19.45-8.58L20.86-8.58ZM27.38-1.92L27.38-2.77L28.45-2.77L28.45-2.16Q28.45-0.75 29.77-0.75L29.77-0.75Q31.13-0.75 31.13-2.25L31.13-2.25L31.13-8.58L32.30-8.58L32.30-2.30Q32.25 0.09 29.81 0.14L29.81 0.14Q27.52 0.09 27.38-1.92L27.38-1.92ZM34.27-8.58L35.44-8.58L35.44 0L34.27 0L34.27-8.58ZM38.81-8.58L43.13-1.64L43.13-8.58L44.25-8.58L44.25 0L42.94 0L38.58-6.94L38.53-6.94L38.53 0L37.41 0L37.41-8.58L38.81-8.58ZM56.16-4.27L56.16-4.27Q55.97-7.64 53.16-7.83L53.16-7.83Q50.30-7.69 50.16-4.27L50.16-4.27Q50.30-0.94 53.16-0.80L53.16-0.80Q55.97-0.98 56.16-4.27ZM57.33-4.27L57.33-4.27Q57.05 0 53.16 0.14L53.16 0.14Q49.22 0 48.94-4.27L48.94-4.27Q49.17-8.72 53.16-8.81L53.16-8.81Q57.05-8.67 57.33-4.27ZM62.81-3.70L60-3.70L60 0L58.83 0L58.83-8.58L62.81-8.58Q65.67-8.58 65.67-6.28L65.67-6.28Q65.67-4.88 64.45-4.22L64.45-4.22Q65.48-3.94 65.48-2.58L65.48-2.58L65.58-1.03Q65.53-0.38 66-0.19L66-0.19L66 0L64.55 0Q64.41-0.61 64.36-2.16L64.36-2.16Q64.41-3.70 62.81-3.70L62.81-3.70ZM62.91-7.64L60-7.64L60-4.69L62.72-4.69Q64.45-4.69 64.45-6.19L64.45-6.19Q64.45-7.64 62.91-7.64L62.91-7.64ZM72.98 0L72.14-2.48L68.67-2.48L67.78 0L66.61 0L69.84-8.58L71.16-8.58L74.25 0L72.98 0ZM70.41-7.31L69.05-3.52L71.72-3.52L70.45-7.31L70.41-7.31ZM76.69-8.58L81-1.64L81-8.58L82.13-8.58L82.13 0L80.81 0L76.45-6.94L76.41-6.94L76.41 0L75.28 0L75.28-8.58L76.69-8.58ZM90.33-3.61L87.70-3.61L87.70-4.59L91.45-4.59L91.45 0L90.70 0L90.42-1.08Q89.44 0.09 87.61 0.14L87.61 0.14Q85.88 0.14 84.94-0.75L84.94-0.75Q83.53-2.06 83.58-4.36L83.58-4.36Q83.91-8.63 87.66-8.81L87.66-8.81Q90.84-8.63 91.31-6L91.31-6L90.19-6Q89.72-7.78 87.61-7.83L87.61-7.83Q84.94-7.64 84.80-4.31L84.80-4.31Q84.80-0.75 87.66-0.75L87.66-0.75Q88.69-0.75 89.44-1.31L89.44-1.31Q90.38-2.06 90.33-3.61L90.33-3.61ZM94.55-1.03L99.70-1.03L99.70 0L93.38 0L93.38-8.58L99.61-8.58L99.61-7.59L94.55-7.59L94.55-4.92L99.23-4.92L99.23-3.89L94.55-3.89L94.55-1.03ZM110.06-3.89L105.84-3.89L105.84 0L104.67 0L104.67-8.58L110.63-8.58L110.63-7.59L105.84-7.59L105.84-4.92L110.06-4.92L110.06-3.89ZM117.47-3.19L117.47-8.58L118.64-8.58L118.64-3.05Q118.50 0.05 115.13 0.14L115.13 0.14Q111.98 0.05 111.84-2.86L111.84-2.86L111.84-8.58L113.02-8.58L113.02-3.19Q113.06-0.84 115.17-0.80L115.17-0.80Q117.47-0.84 117.47-3.19L117.47-3.19ZM121.83-8.58L126.14-1.64L126.14-8.58L127.27-8.58L127.27 0L125.95 0L121.59-6.94L121.55-6.94L121.55 0L120.42 0L120.42-8.58L121.83-8.58Z" transform="translate(-0.1875, 8.8125)"></path></g></g></g></g></g><defs v-gra="od"></defs></svg>